<?xml version="1.0" ?>
<!DOCTYPE svg  PUBLIC '-//W3C//DTD SVG 1.1//EN'  'http://www.w3.org/Graphics/SVG/1.1/DTD/svg11.dtd'>
<!-- Uploaded to: SVG Repo, www.svgrepo.com, Generator: SVG Repo Mixer Tools -->
<svg width="800px" height="800px" viewBox="0 0 100 100" enable-background="new 0 0 100 100" id="Layer_1" version="1.1" xml:space="preserve" xmlns="http://www.w3.org/2000/svg" xmlns:xlink="http://www.w3.org/1999/xlink">
<g>
<g>
<rect clip-rule="evenodd" fill="#F2F2F2" fill-rule="evenodd" height="79.862" width="64.152" x="9.705" y="10.069"/>
<path d="M75.217,91.29H8.346V8.71h66.871V91.29z M11.063,88.573h61.436V11.428H11.063V88.573z"/>
</g>
<g>
<rect clip-rule="evenodd" fill="#FF7C24" fill-rule="evenodd" height="12.013" width="17.183" x="45.772" y="38.198"/>
</g>
<g>
<rect height="2.717" width="18.63" x="20.703" y="36.84"/>
</g>
<g>
<rect height="2.717" width="14.895" x="20.909" y="43.477"/>
</g>
<g>
<rect height="2.718" width="14.894" x="21.001" y="50.18"/>
</g>
<g>
<rect height="2.717" width="32.506" x="20.909" y="57.11"/>
</g>
<g>
<rect height="2.717" width="26.907" x="20.909" y="63.748"/>
</g>
<g>
<rect clip-rule="evenodd" fill="#39B6CC" fill-rule="evenodd" height="8.618" width="42.204" x="20.751" y="21.039"/>
</g>
<g>
<path clip-rule="evenodd" d="M58.378,62.591l1.861-3.434l2.49,0.779    c0.424-0.515,1.068-1.347,1.559-1.799l-0.899-2.462l3.496-2.241l1.886,1.909c0.783-0.303,1.601-0.534,2.447-0.697l0.414-2.554    h4.453l0.413,2.554c0.847,0.163,1.664,0.394,2.448,0.697l1.972-1.784l3.271,2.034l-0.76,2.544c0.476,0.438,0.918,0.904,1.327,1.4    l2.635-0.52l1.784,3.256L87.3,64.168c0.182,0.558,0.327,1.135,0.438,1.722l2.559,0.625v3.977l-2.559,0.678    c-0.105,0.563-0.245,1.115-0.418,1.654l1.913,1.832l-1.74,3.218l-2.693-0.404c-0.424,0.515-0.88,1-1.37,1.453l0.76,2.539    l-3.045,1.895l-2.197-1.645c-0.784,0.303-1.602,0.538-2.448,0.697l-0.413,2.559h-4.453l-0.414-2.559    c-0.847-0.159-1.664-0.395-2.447-0.697l-2.088,1.717l-3.154-1.967l0.76-2.539c-0.477-0.438-0.919-0.904-1.327-1.399l-2.612,0.567    l-1.875-3.429l1.943-1.77c-0.184-0.558-0.327-1.135-0.438-1.722l-2.558-0.693v-3.775l2.558-0.813    c0.106-0.567,0.246-1.121,0.419-1.659L58.378,62.591z" fill="#39B6CC" fill-rule="evenodd"/>
<path d="M77.241,86.327h-6.767l-0.45-2.791c-0.332-0.084-0.66-0.18-0.985-0.286l-2.247,1.848l-4.862-3.032l0.82-2.744    c-0.097-0.099-0.191-0.2-0.285-0.301l-2.82,0.613l-2.875-5.258l2.105-1.918c-0.017-0.064-0.033-0.128-0.049-0.192l-2.764-0.749    v-5.809l2.755-0.875c0.009-0.037,0.018-0.075,0.027-0.113l-2.199-1.786l2.932-5.408l2.68,0.838    c0.149-0.183,0.308-0.371,0.466-0.552l-0.983-2.694l5.339-3.423l2.054,2.08c0.292-0.093,0.59-0.178,0.892-0.255l0.451-2.788h6.767    l0.451,2.788c0.319,0.082,0.634,0.172,0.942,0.271l2.131-1.928l5.021,3.123l-0.822,2.75c0.102,0.104,0.2,0.208,0.298,0.314    l2.842-0.56l2.749,5.017l-2.024,2.045c0.019,0.072,0.037,0.145,0.055,0.217l2.771,0.677v6.089l-2.768,0.733    c-0.012,0.047-0.022,0.094-0.035,0.141l2.069,1.98l-2.688,4.967l-2.896-0.435c-0.122,0.134-0.245,0.267-0.372,0.396l0.822,2.746    l-4.714,2.935l-2.357-1.765c-0.338,0.112-0.68,0.212-1.023,0.299L77.241,86.327z M72.788,83.609h2.14l0.381-2.359l0.938-0.176    c0.749-0.14,1.491-0.352,2.209-0.629l0.702-0.271l2.056,1.539l1.375-0.856l-0.705-2.358l0.623-0.575    c0.438-0.403,0.855-0.846,1.243-1.316l0.488-0.595l2.513,0.377l0.794-1.467l-1.779-1.704l0.26-0.809    c0.154-0.481,0.281-0.982,0.377-1.49l0.158-0.842l2.376-0.63v-1.865l-2.372-0.58l-0.162-0.86    c-0.104-0.546-0.235-1.067-0.395-1.551l-0.258-0.789l1.746-1.765l-0.818-1.495l-2.455,0.484l-0.516-0.625    c-0.366-0.444-0.77-0.87-1.198-1.264l-0.625-0.575l0.705-2.364l-1.519-0.945l-1.833,1.659l-0.781-0.302    c-0.695-0.269-1.44-0.481-2.216-0.631l-0.932-0.18l-0.381-2.349h-2.141l-0.38,2.349l-0.932,0.18    c-0.774,0.15-1.521,0.362-2.216,0.631l-0.831,0.321l-1.737-1.76l-1.653,1.06l0.837,2.291l-0.667,0.614    c-0.324,0.3-0.81,0.898-1.163,1.335c-0.095,0.118-0.184,0.229-0.266,0.328l-0.582,0.707L60.9,60.787l-0.791,1.459l1.865,1.515    l-0.284,0.885c-0.154,0.481-0.281,0.984-0.376,1.492l-0.149,0.8l-2.386,0.758v1.742l2.377,0.644l0.158,0.837    c0.102,0.545,0.234,1.067,0.393,1.551l0.274,0.835l-1.803,1.643l0.875,1.601l2.428-0.527l0.527,0.639    c0.367,0.445,0.771,0.87,1.198,1.264l0.626,0.576l-0.706,2.36l1.446,0.902l1.946-1.601l0.74,0.286    c0.718,0.277,1.461,0.489,2.208,0.629l0.938,0.176L72.788,83.609z"/>
</g>
<g>
<path clip-rule="evenodd" d="M73.857,62.485c3.338,0,6.045,2.708,6.045,6.045    c0,3.337-2.707,6.045-6.045,6.045c-3.337,0-6.045-2.708-6.045-6.045C67.813,65.192,70.521,62.485,73.857,62.485L73.857,62.485z" fill="#F2F2F2" fill-rule="evenodd"/>
<path d="M73.857,75.934c-4.082,0-7.403-3.321-7.403-7.403c0-4.083,3.321-7.404,7.403-7.404c4.083,0,7.404,3.321,7.404,7.404    C81.262,72.612,77.94,75.934,73.857,75.934z M73.857,63.843c-2.583,0-4.687,2.103-4.687,4.687c0,2.584,2.104,4.687,4.687,4.687    c2.585,0,4.687-2.103,4.687-4.687C78.544,65.946,76.442,63.843,73.857,63.843z"/>
</g>
<g>
<rect height="2.717" width="28.321" x="20.909" y="70.096"/>
</g>
<g>
<rect height="2.717" width="31.395" x="20.909" y="76.732"/>
</g>
<g>
<rect height="2.717" width="3.098" x="37.741" y="43.477"/>
</g>
</g>
</svg>