<?xml version="1.0" encoding="iso-8859-1"?>
<!-- Uploaded to: SVG Repo, www.svgrepo.com, Generator: SVG Repo Mixer Tools -->
<svg height="800px" width="800px" version="1.1" id="Layer_1" xmlns="http://www.w3.org/2000/svg" xmlns:xlink="http://www.w3.org/1999/xlink" 
	 viewBox="0 0 512.001 512.001" xml:space="preserve">
<path style="fill:#FF755C;" d="M241.142,6.758C236.785,2.399,230.981,0,224.796,0s-11.989,2.399-16.346,6.757L58.374,156.833
	l4.074,22.633l229.543,222.542l169.53-174.316L241.142,6.758z"/>
<path style="fill:#FFC0D5;" d="M62.448,179.466l-15.025-0.885c-0.395,2.106-0.607,4.179-0.607,6.153v72.813
	c0,9.47,4.861,21.206,11.558,27.904l220.778,220.778c2.064,2.714,12.839-104.222,12.839-104.222L62.448,179.466z"/>
<path style="fill:#FF80AB;" d="M58.374,156.833c-5.302,5.302-9.44,13.758-10.94,21.75l242.582,242.582
	c1.189-11.342,1.976-19.157,1.976-19.157l5.698-5.86L58.374,156.833z"/>
<polygon style="fill:#9AD7FF;" points="453.625,287.596 453.625,336.901 287.207,498.709 287.207,419.342 "/>
<polygon style="fill:#C2E7FF;" points="453.625,235.564 453.625,287.596 287.207,454.015 287.207,397.371 "/>
<path style="fill:#FF4181;" d="M461.799,331.433c-4.513-4.511-11.829-4.513-16.346,0l-146.69,146.691v-64.558
	c0-3.29,2.461-9.231,4.787-11.558l49.174-49.174l108.797-108.796c4.513-4.513,4.513-11.832,0-16.346
	c-4.513-4.511-11.829-4.513-16.346,0L287.203,385.664c-6.695,6.698-11.555,18.432-11.555,27.903v80.904
	c0,11.275,6.67,15.253,9.536,16.441c1.173,0.485,3.125,1.09,5.568,1.09c3.532,0,8.087-1.263,12.797-5.973l158.25-158.25
	C466.313,343.265,466.313,335.947,461.799,331.433z"/>
</svg>