<?xml version="1.0" encoding="iso-8859-1"?>
<!-- Uploaded to: SVG Repo, www.svgrepo.com, Generator: SVG Repo Mixer Tools -->
<svg height="800px" width="800px" version="1.1" id="Layer_1" xmlns="http://www.w3.org/2000/svg" xmlns:xlink="http://www.w3.org/1999/xlink" 
	 viewBox="0 0 512 512" xml:space="preserve">
<path style="fill:#5D9CEC;" d="M511.6,256c0,141.265-114.535,255.8-255.8,255.8C114.52,511.8,0,397.265,0,256
	C0,114.72,114.52,0.2,255.8,0.2C397.064,0.2,511.6,114.72,511.6,256z"/>
<g>
	<path style="fill:#A0D468;" d="M464.496,235.703c-52.115,3.966-68.806-26.557-61.951-35.878
		c11.865-16.175,68.384,23.092,72.131-6.011c0.625-4.871,12.381-17.299,23.248-20.531c-24.154-70.71-78.408-127.479-147.479-155.004
		c-2.374,8.072-4.497,14.785-5.652,15.363c-39.719,19.313-86.651,28.274-114.833,65.402c-3.95,5.214-9.165,15.051-3.513,21.28
		c6.979,7.696,25.667-0.219,34.863,0.437c25.512,1.843,97.471,18.595,99.813,30.258c2.326,11.647-27.323,33.692-56.284,17.705
		c-8.525-4.699-42.607-10.555-54.192-12.631c-8.072-1.468-77.939,7.307-74.816,90.336c1.265,33.677,22.311,55.347,56.3,55.737
		c28.166,0.328,56.674-2.967,65.902,30.367c7.821,28.274,4.84,57.533,11.803,85.651c2.811,11.319,8.774,27.213,23.123,28.446
		c21.732,1.874,36.346-12.739,49.398-27.915c10.43-12.101,23.591-22.623,31.334-36.769c12.304-22.498,8.932-49.258,21.937-71.787
		C446.136,291.987,480.952,234.454,464.496,235.703z"/>
	<path style="fill:#A0D468;" d="M82.084,305.82c-8.009-11.632-17.182-22.903-25.417-34.379
		c-7.674-10.695-37.627-59.329-51.515-66.808C1.771,221.23,0,238.404,0,256c0,62.248,22.241,119.313,59.212,163.669
		c0.952,1.14,23.177-15.363,25.136-17.033c8.197-6.964,15.074-15.473,18.15-25.949C109.664,352.3,95.565,325.431,82.084,305.82z"/>
</g>
<path style="fill:#434A54;" d="M501.357,338.561c-0.312,0-0.624,0-0.936-0.031c-43.107-3.747-93.818-18.407-150.727-43.575
	c-45.121-19.953-94.333-46.558-146.245-79.063c-88.196-55.24-154.753-109.29-155.417-109.837c-4.559-3.716-5.246-10.43-1.522-14.988
	c3.716-4.559,10.429-5.246,14.988-1.53c0.656,0.531,66.354,53.88,153.489,108.416c51.007,31.943,99.282,58.032,143.451,77.563
	c54.707,24.169,103.091,38.236,143.825,41.78c5.87,0.5,10.211,5.668,9.695,11.538C511.475,334.376,506.822,338.561,501.357,338.561z
	"/>
<path style="fill:#ED5564;" d="M166.979,160.075c0,15.69-12.724,28.415-28.431,28.415c-15.691,0-28.416-12.725-28.416-28.415
	c0-15.707,12.725-28.431,28.416-28.431C154.254,131.645,166.979,144.368,166.979,160.075z"/>
<path style="fill:#434A54;" d="M107.572,475.157c-3.029,0-6.026-1.28-8.134-3.763c-3.81-4.481-3.263-11.21,1.218-15.02
	c52.615-44.716,101.562-93.614,145.465-145.355c35.128-41.405,67.15-84.699,95.144-128.712
	c47.713-74.957,67.463-126.636,67.65-127.15c2.077-5.496,8.229-8.275,13.74-6.198c5.495,2.076,8.274,8.212,6.197,13.724
	c-0.811,2.154-20.483,53.771-69.195,130.444c-28.54,44.902-61.155,89.071-96.955,131.304
	c-44.747,52.756-94.614,102.623-148.244,148.182C112.458,474.313,110.007,475.157,107.572,475.157z"/>
<g>
	<path style="fill:#ED5564;" d="M330.398,256c0,17.658-14.302,31.976-31.976,31.976c-17.658,0-31.976-14.317-31.976-31.976
		s14.317-31.975,31.976-31.975C316.097,224.025,330.398,238.342,330.398,256z"/>
	<circle style="fill:#ED5564;" cx="191.85" cy="383.9" r="31.975"/>
</g>
</svg>